<svg xmlns="http://www.w3.org/2000/svg" width="64" height="65" fill="none"><rect width="60" height="60" x="2" y="2" fill="url(#a)" rx="30"/><g filter="url(#b)"><rect width="58.442" height="58.442" x="2.779" y="2.779" fill="url(#c)" rx="29.221"/><rect width="57.942" height="57.942" x="3.029" y="3.029" stroke="url(#d)" stroke-width=".5" rx="28.971"/></g><g filter="url(#e)"><path fill="#13488C" fill-opacity=".5" d="M35.543 27.795v-4.754c0-2.147.524-3.233 4.208-3.233h4.623v-7.987H36.66c-9.452 0-12.57 3.919-12.57 10.646v5.328h-6.21v7.987h6.21v23.962h11.453V35.781h7.782l1.049-7.987h-8.831Z"/></g><mask id="g" fill="#fff"><path fill-rule="evenodd" d="M37.62 22.809v4.986h8.312l-.987 8.377h-7.324v25.13h-.006v.173c-2.842.76-8.488.592-10.775.083v-1.106h.002v-24.28h-5.845v-8.376h5.845v-5.59c0-7.054 2.934-11.164 11.83-11.164h7.26v8.377h-4.35c-3.468 0-3.961 1.139-3.961 3.39Z" clip-rule="evenodd"/></mask><path fill="#fff" fill-opacity=".9" fill-rule="evenodd" d="M37.62 22.809v4.986h8.312l-.987 8.377h-7.324v25.13h-.006v.173c-2.842.76-8.488.592-10.775.083v-1.106h.002v-24.28h-5.845v-8.376h5.845v-5.59c0-7.054 2.934-11.164 11.83-11.164h7.26v8.377h-4.35c-3.468 0-3.961 1.139-3.961 3.39Z" clip-rule="evenodd"/><path fill="url(#f)" d="M37.62 27.796h-.5v.5h.5v-.5Zm8.312 0 .497.058.066-.558h-.563v.5Zm-.987 8.376v.5h.445l.052-.441-.497-.059Zm-7.324 0v-.5h-.5v.5h.5Zm0 25.13v.5h.5v-.5h-.5Zm-.006 0v-.5h-.5v.5h.5Zm0 .173.129.483.37-.1v-.383h-.5Zm-10.775.083h-.5v.401l.391.087.109-.488Zm0-1.106v-.5h-.5v.5h.5Zm.002 0v.5h.5v-.5h-.5Zm0-24.28h.5v-.5h-.5v.5Zm-5.845 0h-.5v.5h.5v-.5Zm0-8.376v-.5h-.5v.5h.5Zm5.845 0v.5h.5v-.5h-.5Zm19.09-16.754h.5v-.5h-.5v.5Zm0 8.377v.5h.5v-.5h-.5Zm-7.811 8.377v-4.987h-1v4.986h1Zm7.811-.5h-8.311v1h8.311v-1Zm-.49 8.935.987-8.377-.993-.117-.987 8.377.993.117Zm-7.821.441h7.324v-1h-7.324v1Zm.5 24.63v-25.13h-1v25.13h1Zm-.506.5h.006v-1h-.006v1Zm-.5-.5v.173h1v-.173h-1Zm.37-.31c-1.354.362-3.422.51-5.463.5-2.038-.01-3.98-.179-5.074-.422l-.217.976c1.195.266 3.219.435 5.286.446 2.064.01 4.24-.137 5.727-.534l-.258-.966Zm-10.145.566v-1.106h-1v1.106h1Zm-.5-.606h.002v-1h-.002v1Zm-.498-24.78v24.28h1v-24.28h-1Zm-5.345.5h5.845v-1h-5.845v1Zm-.5-8.876v8.376h1v-8.376h-1Zm6.345-.5h-5.845v1h5.845v-1Zm-.5-5.09v5.59h1v-5.59h-1Zm12.33-11.664c-4.513 0-7.631 1.042-9.61 3.09-1.977 2.044-2.72 4.991-2.72 8.575h1c0-3.472.724-6.107 2.439-7.88 1.712-1.772 4.51-2.785 8.892-2.785v-1Zm7.26 0h-7.26v1h7.26v-1Zm.5 8.877v-8.377h-1v8.377h1Zm-4.85.5h4.35v-1h-4.35v1Zm-3.461 2.89c0-1.128.135-1.78.536-2.189.405-.411 1.21-.701 2.925-.701v-1c-1.753 0-2.929.28-3.638 1-.712.724-.823 1.766-.823 2.89h1Z" mask="url(#g)"/><defs><linearGradient id="a" x1="30.831" x2="32" y1="60.442" y2="5.312" gradientUnits="userSpaceOnUse"><stop stop-color="#004DAE"/><stop offset=".87" stop-color="#4497FF"/></linearGradient><linearGradient id="c" x1="32" x2="32" y1="9.208" y2="54.792" gradientUnits="userSpaceOnUse"><stop stop-color="#1778F2"/><stop offset="1" stop-color="#1778F2" stop-opacity=".62"/></linearGradient><linearGradient id="d" x1="32" x2="32" y1="2.779" y2="61.221" gradientUnits="userSpaceOnUse"><stop stop-color="#7CB4FB"/><stop offset="1" stop-color="#0B6280"/></linearGradient><linearGradient id="f" x1="33.465" x2="33.465" y1="11.042" y2="61.992" gradientUnits="userSpaceOnUse"><stop stop-color="#fff"/><stop offset="1" stop-color="#fff" stop-opacity="0"/></linearGradient><filter id="b" width="62.442" height="62.441" x=".779" y=".779" color-interpolation-filters="sRGB" filterUnits="userSpaceOnUse"><feFlood flood-opacity="0" result="BackgroundImageFix"/><feBlend in="SourceGraphic" in2="BackgroundImageFix" result="shape"/><feGaussianBlur result="effect1_foregroundBlur_3_282" stdDeviation="1"/></filter><filter id="e" width="36.493" height="57.922" x="12.88" y="6.821" color-interpolation-filters="sRGB" filterUnits="userSpaceOnUse"><feFlood flood-opacity="0" result="BackgroundImageFix"/><feBlend in="SourceGraphic" in2="BackgroundImageFix" result="shape"/><feGaussianBlur result="effect1_foregroundBlur_3_282" stdDeviation="2.5"/></filter></defs></svg>