<svg width="35" height="36" viewBox="0 0 35 36" fill="none" xmlns="http://www.w3.org/2000/svg">
<path d="M13 30.7621C5.11667 33.3287 5.11667 26.1787 2 25.2621L13 30.7621ZM24 34.4287V28.0121C24 26.1787 24.1833 25.4454 23.0833 24.3454C28.2167 23.7954 33.1667 21.7787 33.1667 13.3454C33.1644 11.1545 32.3097 9.05047 30.7833 7.47874C31.4992 5.57568 31.4333 3.46673 30.6 1.61208C30.6 1.61208 28.5833 1.06208 24.1833 3.99541C20.4566 3.02482 16.5434 3.02482 12.8167 3.99541C8.41667 1.06208 6.4 1.61208 6.4 1.61208C5.56672 3.46673 5.50081 5.57568 6.21667 7.47874C4.69033 9.05047 3.83557 11.1545 3.83333 13.3454C3.83333 21.7787 8.78333 23.7954 13.9167 24.3454C12.8167 25.4454 12.8167 26.5454 13 28.0121V34.4287" fill="#0F172A"/>
<path d="M24 34.4287V28.0121C24 26.1787 24.1833 25.4454 23.0833 24.3454C28.2167 23.7954 33.1667 21.7787 33.1667 13.3454C33.1644 11.1545 32.3097 9.05047 30.7833 7.47874C31.4992 5.57568 31.4333 3.46673 30.6 1.61208C30.6 1.61208 28.5833 1.06208 24.1833 3.99541C20.4566 3.02482 16.5434 3.02482 12.8167 3.99541C8.41667 1.06208 6.4 1.61208 6.4 1.61208C5.56672 3.46673 5.50081 5.57568 6.21667 7.47874C4.69033 9.05047 3.83557 11.1545 3.83333 13.3454C3.83333 21.7787 8.78333 23.7954 13.9167 24.3454C12.8167 25.4454 12.8167 26.5454 13 28.0121V34.4287M13 30.7621C5.11667 33.3287 5.11667 26.1787 2 25.2621L13 30.7621Z" stroke="#CBD5E1" stroke-width="2.75" stroke-linecap="round" stroke-linejoin="round"/>
</svg>
