<svg width="210" height="44" viewBox="0 0 210 44" fill="none" xmlns="http://www.w3.org/2000/svg">
<g clip-path="url(#clip0_349_628)">
<path d="M14.6667 22H7.33333C6.32081 22 5.5 22.8208 5.5 23.8333V34.8333C5.5 35.8459 6.32081 36.6667 7.33333 36.6667H14.6667C15.6792 36.6667 16.5 35.8459 16.5 34.8333V23.8333C16.5 22.8208 15.6792 22 14.6667 22Z" stroke="url(#paint0_linear_349_628)" stroke-width="2.75" stroke-linecap="round" stroke-linejoin="round"/>
<path d="M25.6667 14.6666H18.3333C17.3208 14.6666 16.5 15.4874 16.5 16.5V34.8333C16.5 35.8458 17.3208 36.6666 18.3333 36.6666H25.6667C26.6792 36.6666 27.5 35.8458 27.5 34.8333V16.5C27.5 15.4874 26.6792 14.6666 25.6667 14.6666Z" stroke="url(#paint1_linear_349_628)" stroke-width="2.75" stroke-linecap="round" stroke-linejoin="round"/>
<path d="M36.6667 7.33337H29.3333C28.3208 7.33337 27.5 8.15419 27.5 9.16671V34.8334C27.5 35.8459 28.3208 36.6667 29.3333 36.6667H36.6667C37.6792 36.6667 38.5 35.8459 38.5 34.8334V9.16671C38.5 8.15419 37.6792 7.33337 36.6667 7.33337Z" stroke="url(#paint2_linear_349_628)" stroke-width="2.75" stroke-linecap="round" stroke-linejoin="round"/>
<path d="M7.33325 36.6666H32.9999" stroke="url(#paint3_linear_349_628)" stroke-width="2.75" stroke-linecap="round" stroke-linejoin="round"/>
</g>
<path d="M50.5771 11.1719V32.5H46.1973V11.1719H50.5771ZM57.8281 16.6504L60.4502 21.4697L63.1455 16.6504H67.6426L63.1602 24.3994L67.8477 32.5H63.3359L60.4795 27.4023L57.623 32.5H53.1113L57.7988 24.3994L53.3164 16.6504H57.8281ZM78.248 28.9258V21.8652C78.248 21.3574 78.165 20.9229 77.999 20.5615C77.833 20.1904 77.5742 19.9023 77.2227 19.6973C76.8809 19.4922 76.4365 19.3896 75.8896 19.3896C75.4209 19.3896 75.0156 19.4727 74.6738 19.6387C74.332 19.7949 74.0684 20.0244 73.8828 20.3271C73.6973 20.6201 73.6045 20.9668 73.6045 21.3672H69.3857C69.3857 20.6934 69.542 20.0537 69.8545 19.4482C70.167 18.8428 70.6211 18.3105 71.2168 17.8516C71.8125 17.3828 72.5205 17.0166 73.3408 16.7529C74.1709 16.4893 75.0986 16.3574 76.124 16.3574C77.3545 16.3574 78.4482 16.5625 79.4053 16.9727C80.3623 17.3828 81.1143 17.998 81.6611 18.8184C82.2178 19.6387 82.4961 20.6641 82.4961 21.8945V28.6768C82.4961 29.5459 82.5498 30.2588 82.6572 30.8154C82.7646 31.3623 82.9209 31.8408 83.126 32.251V32.5H78.8633C78.6582 32.0703 78.502 31.5332 78.3945 30.8887C78.2969 30.2344 78.248 29.5801 78.248 28.9258ZM78.8047 22.8467L78.834 25.2344H76.4756C75.9189 25.2344 75.4355 25.2979 75.0254 25.4248C74.6152 25.5518 74.2783 25.7324 74.0146 25.9668C73.751 26.1914 73.5557 26.4551 73.4287 26.7578C73.3115 27.0605 73.2529 27.3926 73.2529 27.7539C73.2529 28.1152 73.3359 28.4424 73.502 28.7354C73.668 29.0186 73.9072 29.2432 74.2197 29.4092C74.5322 29.5654 74.8984 29.6436 75.3184 29.6436C75.9531 29.6436 76.5049 29.5166 76.9736 29.2627C77.4424 29.0088 77.8037 28.6963 78.0576 28.3252C78.3213 27.9541 78.458 27.6025 78.4678 27.2705L79.5811 29.0576C79.4248 29.458 79.21 29.873 78.9365 30.3027C78.6729 30.7324 78.3359 31.1377 77.9258 31.5186C77.5156 31.8896 77.0225 32.1973 76.4463 32.4414C75.8701 32.6758 75.1865 32.793 74.3955 32.793C73.3896 32.793 72.4766 32.5928 71.6562 32.1924C70.8457 31.7822 70.2012 31.2207 69.7227 30.5078C69.2539 29.7852 69.0195 28.9648 69.0195 28.0469C69.0195 27.2168 69.1758 26.4795 69.4883 25.835C69.8008 25.1904 70.2598 24.6484 70.8652 24.209C71.4805 23.7598 72.2471 23.4229 73.165 23.1982C74.083 22.9639 75.1475 22.8467 76.3584 22.8467H78.8047ZM89.9668 20.1074V32.5H85.748V16.6504H89.7178L89.9668 20.1074ZM94.7422 16.5479L94.6689 20.459C94.4639 20.4297 94.2148 20.4053 93.9219 20.3857C93.6387 20.3564 93.3799 20.3418 93.1455 20.3418C92.5498 20.3418 92.0322 20.4199 91.5928 20.5762C91.1631 20.7227 90.8018 20.9424 90.5088 21.2354C90.2256 21.5283 90.0107 21.8848 89.8643 22.3047C89.7275 22.7246 89.6494 23.2031 89.6299 23.7402L88.7803 23.4766C88.7803 22.4512 88.8828 21.5088 89.0879 20.6494C89.293 19.7803 89.5908 19.0234 89.9814 18.3789C90.3818 17.7344 90.8701 17.2363 91.4463 16.8848C92.0225 16.5332 92.6816 16.3574 93.4238 16.3574C93.6582 16.3574 93.8975 16.377 94.1416 16.416C94.3857 16.4453 94.5859 16.4893 94.7422 16.5479ZM105.23 16.6504V19.6387H96.002V16.6504H105.23ZM98.2871 12.7393H102.506V27.7246C102.506 28.1836 102.564 28.5352 102.682 28.7793C102.809 29.0234 102.994 29.1943 103.238 29.292C103.482 29.3799 103.79 29.4238 104.161 29.4238C104.425 29.4238 104.659 29.4141 104.864 29.3945C105.079 29.3652 105.26 29.3359 105.406 29.3066L105.421 32.4121C105.06 32.5293 104.669 32.6221 104.249 32.6904C103.829 32.7588 103.365 32.793 102.857 32.793C101.93 32.793 101.119 32.6416 100.426 32.3389C99.7422 32.0264 99.2148 31.5283 98.8438 30.8447C98.4727 30.1611 98.2871 29.2627 98.2871 28.1494V12.7393ZM120.245 29.2041V32.5H108.204V29.2041H120.245ZM120.011 19.082L109.903 32.5H107.076V29.9951L117.14 16.6504H120.011V19.082ZM118.517 16.6504V19.9609H107.311V16.6504H118.517ZM126.749 10V12.2266C126.749 12.8613 126.627 13.5156 126.383 14.1895C126.148 14.8633 125.831 15.5029 125.431 16.1084C125.03 16.7041 124.591 17.2119 124.112 17.6318L122.135 16.4893C122.496 15.9131 122.804 15.2881 123.058 14.6143C123.312 13.9307 123.438 13.1396 123.438 12.2412V10H126.749ZM135.509 28.1201C135.509 27.8174 135.421 27.5439 135.245 27.2998C135.069 27.0557 134.742 26.8311 134.264 26.626C133.795 26.4111 133.116 26.2158 132.228 26.04C131.427 25.8643 130.68 25.6445 129.986 25.3809C129.303 25.1074 128.707 24.7803 128.199 24.3994C127.701 24.0186 127.311 23.5693 127.027 23.0518C126.744 22.5244 126.603 21.9238 126.603 21.25C126.603 20.5859 126.744 19.9609 127.027 19.375C127.32 18.7891 127.735 18.2715 128.272 17.8223C128.819 17.3633 129.483 17.0068 130.265 16.7529C131.056 16.4893 131.944 16.3574 132.931 16.3574C134.308 16.3574 135.489 16.5771 136.476 17.0166C137.472 17.4561 138.233 18.0615 138.761 18.833C139.298 19.5947 139.566 20.4639 139.566 21.4404H135.348C135.348 21.0303 135.26 20.6641 135.084 20.3418C134.918 20.0098 134.654 19.751 134.293 19.5654C133.941 19.3701 133.482 19.2725 132.916 19.2725C132.447 19.2725 132.042 19.3555 131.7 19.5215C131.358 19.6777 131.095 19.8926 130.909 20.166C130.733 20.4297 130.646 20.7227 130.646 21.0449C130.646 21.2891 130.694 21.5088 130.792 21.7041C130.899 21.8896 131.07 22.0605 131.305 22.2168C131.539 22.373 131.842 22.5195 132.213 22.6562C132.594 22.7832 133.062 22.9004 133.619 23.0078C134.762 23.2422 135.782 23.5498 136.681 23.9307C137.579 24.3018 138.292 24.8096 138.819 25.4541C139.347 26.0889 139.61 26.9238 139.61 27.959C139.61 28.6621 139.454 29.3066 139.142 29.8926C138.829 30.4785 138.38 30.9912 137.794 31.4307C137.208 31.8604 136.505 32.1973 135.685 32.4414C134.874 32.6758 133.961 32.793 132.945 32.793C131.471 32.793 130.221 32.5293 129.195 32.002C128.18 31.4746 127.408 30.8057 126.881 29.9951C126.363 29.1748 126.104 28.335 126.104 27.4756H130.104C130.123 28.0518 130.27 28.5156 130.543 28.8672C130.826 29.2188 131.183 29.4727 131.612 29.6289C132.052 29.7852 132.525 29.8633 133.033 29.8633C133.58 29.8633 134.034 29.79 134.396 29.6436C134.757 29.4873 135.03 29.2822 135.216 29.0283C135.411 28.7646 135.509 28.4619 135.509 28.1201ZM158.434 23.1396H152.955L152.926 20.1221H157.525C158.336 20.1221 159 20.0195 159.518 19.8145C160.035 19.5996 160.421 19.292 160.675 18.8916C160.938 18.4814 161.07 17.9834 161.07 17.3975C161.07 16.7334 160.943 16.1963 160.689 15.7861C160.445 15.376 160.06 15.0781 159.532 14.8926C159.015 14.707 158.346 14.6143 157.525 14.6143H154.479V32.5H150.084V11.1719H157.525C158.766 11.1719 159.874 11.2891 160.851 11.5234C161.837 11.7578 162.672 12.1143 163.355 12.5928C164.039 13.0713 164.562 13.6768 164.923 14.4092C165.284 15.1318 165.465 15.9912 165.465 16.9873C165.465 17.8662 165.265 18.6768 164.864 19.4189C164.474 20.1611 163.854 20.7666 163.004 21.2354C162.164 21.7041 161.065 21.9629 159.708 22.0117L158.434 23.1396ZM158.243 32.5H151.754L153.468 29.0723H158.243C159.015 29.0723 159.645 28.9502 160.133 28.7061C160.621 28.4521 160.982 28.1104 161.217 27.6807C161.451 27.251 161.568 26.7578 161.568 26.2012C161.568 25.5762 161.461 25.0342 161.246 24.5752C161.041 24.1162 160.709 23.7646 160.25 23.5205C159.791 23.2666 159.186 23.1396 158.434 23.1396H154.2L154.229 20.1221H159.503L160.514 21.3086C161.812 21.2891 162.857 21.5186 163.648 21.9971C164.449 22.4658 165.03 23.0762 165.392 23.8281C165.763 24.5801 165.948 25.3857 165.948 26.2451C165.948 27.6123 165.65 28.7646 165.055 29.7021C164.459 30.6299 163.585 31.3281 162.433 31.7969C161.29 32.2656 159.894 32.5 158.243 32.5ZM173.434 10V32.5H169.2V10H173.434ZM176.246 24.7363V24.4287C176.246 23.2666 176.412 22.1973 176.744 21.2207C177.076 20.2344 177.56 19.3799 178.194 18.6572C178.829 17.9346 179.61 17.373 180.538 16.9727C181.466 16.5625 182.53 16.3574 183.731 16.3574C184.933 16.3574 186.002 16.5625 186.939 16.9727C187.877 17.373 188.663 17.9346 189.298 18.6572C189.942 19.3799 190.431 20.2344 190.763 21.2207C191.095 22.1973 191.261 23.2666 191.261 24.4287V24.7363C191.261 25.8887 191.095 26.958 190.763 27.9443C190.431 28.9209 189.942 29.7754 189.298 30.5078C188.663 31.2305 187.882 31.792 186.954 32.1924C186.026 32.5928 184.962 32.793 183.761 32.793C182.56 32.793 181.49 32.5928 180.553 32.1924C179.625 31.792 178.839 31.2305 178.194 30.5078C177.56 29.7754 177.076 28.9209 176.744 27.9443C176.412 26.958 176.246 25.8887 176.246 24.7363ZM180.465 24.4287V24.7363C180.465 25.4004 180.523 26.0205 180.641 26.5967C180.758 27.1729 180.943 27.6807 181.197 28.1201C181.461 28.5498 181.803 28.8867 182.223 29.1309C182.643 29.375 183.155 29.4971 183.761 29.4971C184.347 29.4971 184.85 29.375 185.27 29.1309C185.689 28.8867 186.026 28.5498 186.28 28.1201C186.534 27.6807 186.72 27.1729 186.837 26.5967C186.964 26.0205 187.027 25.4004 187.027 24.7363V24.4287C187.027 23.7842 186.964 23.1787 186.837 22.6123C186.72 22.0361 186.529 21.5283 186.266 21.0889C186.012 20.6396 185.675 20.2881 185.255 20.0342C184.835 19.7803 184.327 19.6533 183.731 19.6533C183.136 19.6533 182.628 19.7803 182.208 20.0342C181.798 20.2881 181.461 20.6396 181.197 21.0889C180.943 21.5283 180.758 22.0361 180.641 22.6123C180.523 23.1787 180.465 23.7842 180.465 24.4287ZM203.888 16.6504H207.711V31.9727C207.711 33.418 207.389 34.6436 206.744 35.6494C206.109 36.665 205.221 37.4316 204.078 37.9492C202.936 38.4766 201.607 38.7402 200.094 38.7402C199.43 38.7402 198.727 38.6523 197.984 38.4766C197.252 38.3008 196.549 38.0273 195.875 37.6562C195.211 37.2852 194.654 36.8164 194.205 36.25L196.065 33.7598C196.554 34.3262 197.12 34.7656 197.765 35.0781C198.409 35.4004 199.122 35.5615 199.903 35.5615C200.665 35.5615 201.31 35.4199 201.837 35.1367C202.364 34.8633 202.77 34.458 203.053 33.9209C203.336 33.3936 203.478 32.7539 203.478 32.002V20.3125L203.888 16.6504ZM193.224 24.7656V24.458C193.224 23.2471 193.37 22.1484 193.663 21.1621C193.966 20.166 194.391 19.3115 194.938 18.5986C195.494 17.8857 196.168 17.334 196.959 16.9434C197.75 16.5527 198.644 16.3574 199.64 16.3574C200.694 16.3574 201.578 16.5527 202.291 16.9434C203.004 17.334 203.59 17.8906 204.049 18.6133C204.508 19.3262 204.864 20.1709 205.118 21.1475C205.382 22.1143 205.587 23.1738 205.733 24.3262V25C205.587 26.1035 205.367 27.1289 205.074 28.0762C204.781 29.0234 204.396 29.8535 203.917 30.5664C203.438 31.2695 202.843 31.8164 202.13 32.207C201.427 32.5977 200.587 32.793 199.61 32.793C198.634 32.793 197.75 32.5928 196.959 32.1924C196.178 31.792 195.509 31.2305 194.952 30.5078C194.396 29.7852 193.966 28.9355 193.663 27.959C193.37 26.9824 193.224 25.918 193.224 24.7656ZM197.442 24.458V24.7656C197.442 25.4199 197.506 26.0303 197.633 26.5967C197.76 27.1631 197.955 27.666 198.219 28.1055C198.492 28.5352 198.829 28.8721 199.229 29.1162C199.64 29.3506 200.123 29.4678 200.68 29.4678C201.451 29.4678 202.081 29.3066 202.569 28.9844C203.058 28.6523 203.424 28.1982 203.668 27.6221C203.912 27.0459 204.054 26.3818 204.093 25.6299V23.7109C204.073 23.0957 203.99 22.5439 203.844 22.0557C203.697 21.5576 203.492 21.1328 203.229 20.7812C202.965 20.4297 202.623 20.1562 202.203 19.9609C201.783 19.7656 201.285 19.668 200.709 19.668C200.152 19.668 199.669 19.7949 199.259 20.0488C198.858 20.293 198.521 20.6299 198.248 21.0596C197.984 21.4893 197.784 21.9971 197.647 22.583C197.511 23.1592 197.442 23.7842 197.442 24.458Z" fill="url(#paint4_linear_349_628)"/>
<defs>
<linearGradient id="paint0_linear_349_628" x1="11" y1="22" x2="5.5" y2="22" gradientUnits="userSpaceOnUse">
<stop stop-color="#22D3EE"/>
<stop offset="1" stop-color="#0EA5E9"/>
</linearGradient>
<linearGradient id="paint1_linear_349_628" x1="22" y1="14.6666" x2="16.5" y2="14.6666" gradientUnits="userSpaceOnUse">
<stop stop-color="#22D3EE"/>
<stop offset="1" stop-color="#0EA5E9"/>
</linearGradient>
<linearGradient id="paint2_linear_349_628" x1="33" y1="7.33337" x2="27.5" y2="7.33337" gradientUnits="userSpaceOnUse">
<stop stop-color="#22D3EE"/>
<stop offset="1" stop-color="#0EA5E9"/>
</linearGradient>
<linearGradient id="paint3_linear_349_628" x1="20.1666" y1="36.6666" x2="7.33325" y2="36.6666" gradientUnits="userSpaceOnUse">
<stop stop-color="#22D3EE"/>
<stop offset="1" stop-color="#0EA5E9"/>
</linearGradient>
<linearGradient id="paint4_linear_349_628" x1="127" y1="4.5" x2="44" y2="4.5" gradientUnits="userSpaceOnUse">
<stop stop-color="#22D3EE"/>
<stop offset="1" stop-color="#0EA5E9"/>
</linearGradient>
<clipPath id="clip0_349_628">
<rect width="44" height="44" fill="white"/>
</clipPath>
</defs>
</svg>
