<svg width="40" height="33" viewBox="0 0 40 33" fill="none" xmlns="http://www.w3.org/2000/svg">
<path d="M38.5002 2.35169C36.6668 3.25002 34.8702 3.61486 33.0002 4.16669C30.945 1.84752 27.898 1.71919 24.9702 2.81552C22.0423 3.91186 20.1247 6.59219 20.1668 9.66669V11.5C14.2177 11.6522 8.91933 8.94252 5.50016 4.16669C5.50016 4.16669 -2.16684 17.7939 12.8335 24.3334C9.4015 26.6195 5.97866 28.1614 1.8335 28C7.89816 31.3055 14.5073 32.4422 20.2292 30.7812C26.7925 28.8745 32.1862 23.9557 34.256 16.5875C34.8734 14.3466 35.18 12.0314 35.1672 9.70703C35.1635 9.25052 37.9355 4.62502 38.5002 2.34986V2.35169Z" fill="#0F172A" stroke="#CBD5E1" stroke-width="2.75" stroke-linecap="round" stroke-linejoin="round"/>
</svg>
